
<svg xmlns="http://www.w3.org/2000/svg" version="1.1" xmlns:xlink="http://www.w3.org/1999/xlink" preserveAspectRatio="none" x="0px" y="0px" width="500px" height="500px" viewBox="0 0 500 500">
<defs>
<g id="green_invert_0_Layer4_0_FILL">
<path fill="#48897B" stroke="none" d="
M 108.5 -108.55
Q 63.55 -153.5 0 -153.5 -63.6 -153.5 -108.55 -108.55 -153.5 -63.6 -153.5 0 -153.5 63.55 -108.55 108.55 -63.6 153.5 0 153.5 63.55 153.5 108.5 108.55 153.5 63.55 153.5 0 153.5 -63.6 108.5 -108.55
M 0 -126.5
Q 52.35 -126.5 89.4 -89.45 126.5 -52.4 126.5 0 126.5 52.35 89.4 89.45 52.35 126.5 0 126.5 -52.4 126.5 -89.45 89.45 -126.5 52.35 -126.5 0 -126.5 -52.4 -89.45 -89.45 -52.4 -126.5 0 -126.5 Z"/>
</g>

<g id="green_invert_0_Layer3_0_FILL">
<path fill="#FFFFFF" stroke="none" d="
M 110.65 35.7
Q 103.4 28.45 93.85 24.45 84.1 20.25 73.35 20.25 62.7 20.25 52.85 24.45 43.4 28.45 36.05 35.7 28.8 42.95 24.7 52.5 20.55 62.4 20.55 73 20.55 83.7 24.7 93.6 28.8 103.1 36.05 110.35 43.5 117.7 52.85 121.65 62.7 125.85 73.35 125.85 84.1 125.85 93.85 121.65 103.3 117.7 110.65 110.35 117.9 103.1 122 93.6 126.2 83.8 126.2 73 126.2 62.35 122 52.5 117.9 42.95 110.65 35.7 Z"/>
</g>

<g id="green_invert_0_Layer0_0_FILL">
<path fill="#48897B" stroke="none" d="
M 75.6 93.3
Q 75.75 93.55 75.45 94
L 69.4 105 73.35 105 81.7 89.75 75.8 89.75 74 93.05 75 93.05
Q 75.45 93.05 75.6 93.3 Z"/>
</g>

<g id="green_invert_0_Layer0_1_FILL">
<path fill="#48897B" stroke="none" d="
M 84.95 89.6
Q 84.5 89.8 83.85 91
L 81.8 94.75
Q 81.55 95.35 81.6 95.8 81.7 96.4 82.25 96.55 81.25 96.55 80.65 97 80.05 97.45 79.55 98.35
L 77.6 102.05
Q 77.05 103.05 77.35 103.85 77.65 104.75 78.95 104.75
L 83.75 104.75
Q 84.95 104.65 85.5 104.35 86.3 104 86.7 103.3
L 87.25 102.45 89.2 98.8
Q 89.6 98 89.55 97.6 89.4 97.05 88.75 96.7
L 89.4 96.45
Q 90.2 96.15 90.5 95.6
L 92.7 91.9 92.95 91.35
Q 93.1 90.55 92.45 90.05 91.85 89.5 90.85 89.5
L 84.95 89.6
M 86.3 92.75
L 86.5 92.6 86.7 92.5 88.25 92.5
Q 88.4 92.5 88.4 92.7
L 88.35 93 87.25 95 86.7 95.5 86.6 95.55 85.3 95.5 85.05 95.25 85.05 94.95 86.3 92.75
M 83.75 97.65
L 85.8 97.7
Q 86.15 97.7 86.05 98.05
L 83.75 102.1
Q 83.55 102.3 83.15 102.3
L 81.65 102.2
Q 81.5 102.05 81.5 101.65
L 81.75 101.05 83 98.7
Q 83.55 97.65 83.75 97.65 Z"/>
</g>

<g id="green_invert_0_Layer0_2_FILL">
<path fill="#48897B" stroke="none" d="
M 96.65 90.05
Q 95.9 90.55 95.2 91.85
L 89.7 102.4 89.45 103.35
Q 89.3 104.15 89.85 104.55 90.3 105 91.25 105
L 95.8 105 97.55 104.8 98.3 104.55
Q 99.1 104.05 99.85 102.75
L 105.65 91.65 105.8 91.2
Q 105.85 90.4 105.4 89.95 104.9 89.5 103.95 89.5
L 99.25 89.5 97.55 89.75 96.65 90.05
M 98.2 93.95
Q 98.4 93.5 98.85 93.25 99.15 93 99.7 93 100.1 93 100.3 93.15 100.45 93.3 100.45 93.65
L 100.4 93.8 96.85 100.65 96.25 101.4 95.45 101.65
Q 95 101.65 94.8 101.45 94.55 101.25 94.6 101
L 94.7 100.65 98.2 93.95 Z"/>
</g>

<g id="green_invert_0_Layer0_3_FILL">
<path fill="#48897B" stroke="none" d="
M 111.3 89.85
Q 110.05 90 109.45 90.35 108.6 91 107.95 92.15
L 104.8 97.9 104.7 98.3
Q 104.6 99.1 105.05 99.55 105.4 99.9 106.4 99.9
L 109.65 99.9 109.2 100.75 108.55 101.5 107.6 101.7 102.9 101.7 101.05 105 107.95 105
Q 109.65 105 110.45 104.55
L 111.3 103.75 111.95 102.8 117.85 92.4 118.25 91.4
Q 118.4 90.65 117.95 90.2 117.45 89.75 116.5 89.75
L 111.3 89.85
M 110.35 96.65
Q 109.9 96.65 109.65 96.5 109.35 96.35 109.45 96
L 109.5 95.8 110.55 93.95 111.3 93.1
Q 111.8 92.85 112.3 92.85 112.6 92.85 113 93.05 113.25 93.3 113.15 93.6
L 113.1 93.8 111.45 96.65 110.35 96.65 Z"/>
</g>

<g id="green_invert_0_Layer0_4_FILL">
<path fill="#48897B" stroke="none" d="
M 35.45 107.65
L 33.55 110.85 113.6 110.75 116.75 107.45 35.45 107.65 Z"/>
</g>

<g id="green_invert_0_Layer0_5_FILL">
<path fill="#48897B" stroke="none" d="
M 86.7 44.65
L 106.5 44.7
Q 110.15 44.5 112.5 42.65 114.3 41.2 116.25 37.75
L 82.85 37.7 69.05 61.45 50.95 37.85 42.05 37.8 61 62.05
Q 64.25 65.7 66 70.9 67.55 75.5 67.15 79.45
L 86.7 44.65 Z"/>
</g>

<g id="green_invert_0_Layer0_6_FILL">
<path fill="#48897B" stroke="none" d="
M 38.55 37.75
L 30.35 37.6 54.4 69.1
Q 57.05 72.05 57.85 75.85 58.7 79.35 57.85 82.9 56.9 86.3 54.5 88.4 51.9 90.75 48.25 90.8
L 45.15 90.85 41.7 97.15 49.95 97.15
Q 55.45 96.1 58.95 92.5 62.3 89.15 63.65 84.25 64.95 79.85 64.35 74.9 63.65 70.05 61.3 66.65
L 38.55 37.75 Z"/>
</g>

<g id="green_invert_0_Layer0_7_FILL">
<path fill="#48897B" stroke="none" d="
M 62.75 91.7
Q 60.45 94.65 56.8 97.05 52.95 99.65 50 99.65
L 40.2 99.65 36.55 105.85 51.2 105.8
Q 56.7 105.75 62.3 101.45 66.6 98.1 68.6 94.55
L 85.3 65.35 77.4 65.2 62.75 91.7 Z"/>
</g>

<g id="green_invert_0_Layer0_8_FILL">
<path fill="#48897B" stroke="none" d="
M 110.95 46.95
L 87.4 47.2 83.7 53.7 102.25 53.7
Q 104.05 53.55 105.95 52.65 108.3 51.6 109.25 49.8
L 110.95 46.95 Z"/>
</g>

<g id="green_invert_0_Layer0_9_FILL">
<path fill="#48897B" stroke="none" d="
M 106.05 55.85
L 82.35 56.3 78.65 62.85 97.2 62.85
Q 99 62.7 101.2 61.6 103.7 60.25 104.7 58.45
L 106.05 55.85 Z"/>
</g>

<path id="green_invert_0_Layer2_0_1_STROKES" stroke="#FFFFFF" stroke-opacity="0" stroke-width="2.54" stroke-linejoin="miter" stroke-linecap="butt" stroke-miterlimit="22" fill="none" d="
M 97.4 42.55
L 108.9 42.3
Q 111.3 42.3 112.55 43.4 113.7 44.55 113.3 46.45
L 112.3 48.95 97.4 75.2
Q 95.75 78.2 93.65 79.6 91.6 80.75 87.35 80.75
L 69.95 80.75 74.6 72.4 86.45 72.4 88.85 71.9 90.5 70 91.6 67.9 83.4 67.9
Q 80.9 67.9 80 67 78.9 65.85 79.15 63.85
L 79.4 62.85 87.35 48.35
Q 88.95 45.45 91.1 43.8 93.25 42.8 97.4 42.55 Z
M 93.9 52.85
L 91.25 57.55 91.1 58.05
Q 90.85 58.9 91.6 59.3 92.25 59.7 93.4 59.7
L 96.15 59.7 100.3 52.5 100.45 52
Q 100.7 51.25 100.05 50.6 99.05 50.1 98.3 50.1 97.05 50.1 95.75 50.75
L 93.9 52.85 Z
M 48.85 47.7
L 43.3 57.05
Q 42.55 58.4 40.55 59.2
L 38.9 59.8
Q 40.55 60.7 40.9 62.1 41.05 63.1 40.05 65.1
L 35.1 74.3
Q 33.5 77.6 31.35 78.95 29.3 80.1 25.4 80.1
L 14.2 80.1
Q 10.9 80.1 10.15 77.85 9.4 75.8 10.8 73.3
L 15.7 63.95
Q 16.95 61.7 18.5 60.55 20 59.45 22.5 59.45 21.15 59.05 20.9 57.55 20.75 56.4 21.4 54.9
L 26.55 45.45
Q 27.95 42.55 29.3 41.9
L 44.2 41.65
Q 46.7 41.65 48.25 43.05 49.9 44.3 49.5 46.3
L 48.85 47.7 Z
M 29.6 56.15
L 30.2 56.8 33.5 56.9
Q 34 56.9 34.35 56.4
L 35.1 55.5 37.9 50.5 38 49.7
Q 38 49.2 37.65 49.2
L 34.35 49.2 33.25 49.45 32.75 49.85 29.6 55.4 29.6 56.15 Z
M 26.55 73.3
L 32.1 63.2
Q 32.35 62.35 31.45 62.35
L 26.4 62.2
Q 25.8 62.2 24.4 64.85
L 21.25 70.8 20.6 72.3
Q 20.6 73.3 21 73.7
L 24.8 73.95
Q 25.65 73.95 26.55 73.3 Z"/>

<path id="green_invert_0_Layer2_0_2_STROKES" stroke="#FFFFFF" stroke-opacity="0" stroke-width="2.5" stroke-linejoin="miter" stroke-linecap="butt" stroke-miterlimit="22" fill="none" d="
M 77.25 41.65
Q 79.65 41.65 80.9 42.8 82.05 43.9 81.9 45.95
L 81.55 47.05 66.9 75.05
Q 65 78.35 63 79.6 60.95 80.75 56.7 80.75
L 45.2 80.75
Q 42.8 80.75 41.7 79.6 40.3 78.6 40.65 76.6
L 41.3 74.2 55.15 47.55
Q 56.95 44.3 58.85 43.05 61.25 41.65 65.4 41.65
L 77.25 41.65 Z
M 1.7 50.6
L 6.25 42.3 21.15 42.3 0.05 80.75 -9.9 80.75 5.35 53
Q 6.1 51.85 5.75 51.25 5.35 50.6 4.25 50.6
L 1.7 50.6 Z
M 66.5 50.5
Q 65.15 50.5 64.4 51.1 63.25 51.75 62.75 52.85
L 53.9 69.75 53.65 70.65
Q 53.55 71.3 54.15 71.8 54.65 72.3 55.8 72.3
L 57.8 71.65 59.35 69.75 68.3 52.5 68.4 52.1
Q 68.4 51.25 68.05 50.85 67.55 50.5 66.5 50.5 Z"/>

<path id="green_invert_0_Layer1_0_1_STROKES" stroke="#FFFFFF" stroke-width="7.3" stroke-linejoin="miter" stroke-linecap="butt" stroke-miterlimit="22" fill="none" d="
M 83.65 -71.35
Q 92.85 -71.85 98.8 -76.5 103.35 -80.15 108.25 -88.85
L 24.05 -89 -10.75 -29.1 -56.4 -88.6 -78.85 -88.75 -31.05 -27.55
Q -22.9 -18.35 -18.45 -5.25 -16.5 0.55 -15.75 5.9 -15.05 11.3 -15.55 16.3
L 33.75 -71.45 83.65 -71.35 Z
M -47.7 -9.8
L -108.35 -89.25 -87.7 -88.85 -30.3 -15.95
Q -24.4 -7.4 -22.6 4.85 -22.55 5.4 -22.45 5.9 -21.25 17.75 -24.4 28.4 -24.5 28.75 -24.55 29.05 -28 40.95 -36.25 49.2 -45.05 58.3 -58.95 60.95
L -79.75 60.95 -71.05 45.05 -63.2 44.95
Q -54 44.8 -47.45 38.85 -42.9 34.9 -40.4 29.05 -39.6 27.15 -39 25 -36.85 16.05 -39 7.25 -39.15 6.55 -39.3 5.9 -41.5 -2.9 -47.7 -9.8 Z
M -95.85 87.4
L 95.85 86.9 88.4 95.25 -100.35 95.5 -95.85 87.4 Z"/>

<path id="green_invert_0_Layer1_0_2_STROKES" stroke="#FFFFFF" stroke-width="7.55" stroke-linejoin="miter" stroke-linecap="butt" stroke-miterlimit="22" fill="none" d="
M 79.15 -36.65
Q 76.6 -32.1 70.3 -28.7 64.75 -25.95 60.2 -25.55
L 13.45 -25.55 22.75 -42.05 82.55 -43.2 79.15 -36.65 Z
M 90.6 -58.45
Q 88.2 -53.95 82.3 -51.3 77.5 -49 72.95 -48.65
L 26.15 -48.65 35.5 -65 94.9 -65.65 90.6 -58.45 Z"/>

<path id="green_invert_0_Layer1_0_3_STROKES" stroke="#FFFFFF" stroke-width="7.4" stroke-linejoin="miter" stroke-linecap="butt" stroke-miterlimit="22" fill="none" d="
M -41.65 60.7
Q -32.45 54.65 -26.65 47.2
L 10.3 -19.65 30.2 -19.25 -11.9 54.4
Q -12.65 55.75 -13.55 57.1 -18.6 64.6 -27.8 71.8 -41.9 82.65 -55.8 82.75
L -92.75 82.9 -83.5 67.25 -58.8 67.25
Q -51.35 67.25 -41.65 60.7 Z"/>
</defs>

<g transform="matrix( 1.6286163330078125, 0, 0, 1.6286163330078125, 250,250) ">
<g transform="matrix( 1, 0, 0, 1, 0,0) ">
<use xlink:href="#green_invert_0_Layer4_0_FILL"/>
</g>

<g transform="matrix( 2.64996337890625, 0, 0, 2.6500244140625, -195.45,-194.65) ">
<use xlink:href="#green_invert_0_Layer3_0_FILL"/>
</g>

<g transform="matrix( 1, 0, 0, 1, 0,0) ">
<use xlink:href="#green_invert_0_Layer2_0_1_STROKES"/>

<use xlink:href="#green_invert_0_Layer2_0_2_STROKES"/>
</g>

<g transform="matrix( 1, 0, 0, 1, 0,0) ">
<use xlink:href="#green_invert_0_Layer1_0_1_STROKES"/>

<use xlink:href="#green_invert_0_Layer1_0_2_STROKES"/>

<use xlink:href="#green_invert_0_Layer1_0_3_STROKES"/>
</g>

<g transform="matrix( 2.5217742919921875, 0, 0, 2.5217742919921875, -184.9,-184.05) ">
<use xlink:href="#green_invert_0_Layer0_0_FILL"/>
</g>

<g transform="matrix( 2.5217742919921875, 0, 0, 2.5217742919921875, -184.9,-184.05) ">
<use xlink:href="#green_invert_0_Layer0_1_FILL"/>
</g>

<g transform="matrix( 2.5217742919921875, 0, 0, 2.5217742919921875, -184.9,-184.05) ">
<use xlink:href="#green_invert_0_Layer0_2_FILL"/>
</g>

<g transform="matrix( 2.5217742919921875, 0, 0, 2.5217742919921875, -184.9,-184.05) ">
<use xlink:href="#green_invert_0_Layer0_3_FILL"/>
</g>

<g transform="matrix( 2.3194427490234375, 0, 0, 2.5217742919921875, -177.9,-184.05) ">
<use xlink:href="#green_invert_0_Layer0_4_FILL"/>
</g>

<g transform="matrix( 2.5217742919921875, 0, 0, 2.5217742919921875, -184.9,-184.05) ">
<use xlink:href="#green_invert_0_Layer0_5_FILL"/>
</g>

<g transform="matrix( 2.5217742919921875, 0, 0, 2.5217742919921875, -184.9,-184.05) ">
<use xlink:href="#green_invert_0_Layer0_6_FILL"/>
</g>

<g transform="matrix( 2.5217742919921875, 0, 0, 2.5217742919921875, -184.9,-184.05) ">
<use xlink:href="#green_invert_0_Layer0_7_FILL"/>
</g>

<g transform="matrix( 2.5217742919921875, 0, 0, 2.5217742919921875, -184.9,-184.05) ">
<use xlink:href="#green_invert_0_Layer0_8_FILL"/>
</g>

<g transform="matrix( 2.5217742919921875, 0, 0, 2.5217742919921875, -184.9,-184.05) ">
<use xlink:href="#green_invert_0_Layer0_9_FILL"/>
</g>
</g>
</svg>
